REM DIRINDEX 1\2,1\3,1\4,1\5
REM DIRNAME cjc004,folder01,folder02,folder03,folder04
TITLE ""
FILE "1Q_t_0393-0402.mp3" MP3
  TRACK 01 AUDIO
    TITLE "3:cjc004_2080"
    INDEX 01 00:00:00
  TRACK 02 AUDIO
    TITLE "0:"
    INDEX 01 00:01:13
  TRACK 03 AUDIO
    TITLE "4:cjc004_2081"
    INDEX 01 00:01:38
  TRACK 04 AUDIO
    TITLE "0:"
    INDEX 01 00:02:38
  TRACK 05 AUDIO
    TITLE "5:cjc004_2082"
    INDEX 01 00:02:65
  TRACK 06 AUDIO
    TITLE "0:"
    INDEX 01 00:07:41
  TRACK 07 AUDIO
    TITLE "3:cjc004_2083"
    INDEX 01 00:08:23
  TRACK 08 AUDIO
    TITLE "0:"
    INDEX 01 00:09:45
  TRACK 09 AUDIO
    TITLE "4:cjc004_2084"
    INDEX 01 00:09:71
  TRACK 10 AUDIO
    TITLE "0:"
    INDEX 01 00:11:09
  TRACK 11 AUDIO
    TITLE "5:cjc004_2085"
    INDEX 01 00:11:37
  TRACK 12 AUDIO
    TITLE "0:"
    INDEX 01 00:16:00
  TRACK 13 AUDIO
    TITLE "3:cjc004_2086"
    INDEX 01 00:16:61
  TRACK 14 AUDIO
    TITLE "0:"
    INDEX 01 00:18:03
  TRACK 15 AUDIO
    TITLE "4:cjc004_2087"
    INDEX 01 00:18:29
  TRACK 16 AUDIO
    TITLE "0:"
    INDEX 01 00:19:24
  TRACK 17 AUDIO
    TITLE "5:cjc004_2088"
    INDEX 01 00:19:54
  TRACK 18 AUDIO
    TITLE "0:"
    INDEX 01 00:25:35
  TRACK 19 AUDIO
    TITLE "3:cjc004_2089"
    INDEX 01 00:26:17
  TRACK 20 AUDIO
    TITLE "0:"
    INDEX 01 00:27:26
  TRACK 21 AUDIO
    TITLE "4:cjc004_2090"
    INDEX 01 00:27:59
  TRACK 22 AUDIO
    TITLE "0:"
    INDEX 01 00:29:40
  TRACK 23 AUDIO
    TITLE "5:cjc004_2091"
    INDEX 01 00:29:66
  TRACK 24 AUDIO
    TITLE "0:"
    INDEX 01 00:33:64
  TRACK 25 AUDIO
    TITLE "3:cjc004_2092"
    INDEX 01 00:34:47
  TRACK 26 AUDIO
    TITLE "0:"
    INDEX 01 00:35:70
  TRACK 27 AUDIO
    TITLE "4:cjc004_2093"
    INDEX 01 00:36:23
  TRACK 28 AUDIO
    TITLE "0:"
    INDEX 01 00:37:32
  TRACK 29 AUDIO
    TITLE "5:cjc004_2094"
    INDEX 01 00:37:57
  TRACK 30 AUDIO
    TITLE "0:"
    INDEX 01 00:43:09
  TRACK 31 AUDIO
    TITLE "3:cjc004_2095"
    INDEX 01 00:43:64
  TRACK 32 AUDIO
    TITLE "0:"
    INDEX 01 00:44:69
  TRACK 33 AUDIO
    TITLE "4:cjc004_2096"
    INDEX 01 00:45:22
  TRACK 34 AUDIO
    TITLE "0:"
    INDEX 01 00:46:27
  TRACK 35 AUDIO
    TITLE "5:cjc004_2097"
    INDEX 01 00:46:45
  TRACK 36 AUDIO
    TITLE "0:"
    INDEX 01 00:51:63
  TRACK 37 AUDIO
    TITLE "3:cjc004_2098"
    INDEX 01 00:52:47
  TRACK 38 AUDIO
    TITLE "0:"
    INDEX 01 00:53:64
  TRACK 39 AUDIO
    TITLE "4:cjc004_2099"
    INDEX 01 00:54:09
  TRACK 40 AUDIO
    TITLE "0:"
    INDEX 01 00:55:34
  TRACK 41 AUDIO
    TITLE "5:cjc004_2100"
    INDEX 01 00:55:57
  TRACK 42 AUDIO
    TITLE "0:"
    INDEX 01 01:01:33
  TRACK 43 AUDIO
    TITLE "3:cjc004_2101"
    INDEX 01 01:02:14
  TRACK 44 AUDIO
    TITLE "0:"
    INDEX 01 01:03:45
  TRACK 45 AUDIO
    TITLE "4:cjc004_2102"
    INDEX 01 01:04:03
  TRACK 46 AUDIO
    TITLE "0:"
    INDEX 01 01:05:03
  TRACK 47 AUDIO
    TITLE "5:cjc004_2103"
    INDEX 01 01:05:28
  TRACK 48 AUDIO
    TITLE "0:"
    INDEX 01 01:10:43
  TRACK 49 AUDIO
    TITLE "3:cjc004_2104"
    INDEX 01 01:11:21
  TRACK 50 AUDIO
    TITLE "0:"
    INDEX 01 01:12:36
  TRACK 51 AUDIO
    TITLE "4:cjc004_2105"
    INDEX 01 01:12:62
  TRACK 52 AUDIO
    TITLE "0:"
    INDEX 01 01:13:73
  TRACK 53 AUDIO
    TITLE "5:cjc004_2106"
    INDEX 01 01:14:23
  TRACK 54 AUDIO
    TITLE "0:"
    INDEX 01 01:17:73
  TRACK 55 AUDIO
    TITLE "3:cjc004_2107"
    INDEX 01 01:18:51
  TRACK 56 AUDIO
    TITLE "0:"
    INDEX 01 01:19:58
  TRACK 57 AUDIO
    TITLE "4:cjc004_2108"
    INDEX 01 01:20:08
  TRACK 58 AUDIO
    TITLE "0:"
    INDEX 01 01:21:10
  TRACK 59 AUDIO
    TITLE "5:cjc004_2109"
    INDEX 01 01:21:37
  TRACK 60 AUDIO
    TITLE "0:"
    INDEX 01 01:25:62
